<?xml version="1.0" encoding="UTF-8"?><svg id="Laag_1" xmlns="http://www.w3.org/2000/svg" viewBox="0 0 119.05512 79.37008"><defs><style>.cls-1{fill:#fff;}.cls-2{fill:#00a1e5;}</style></defs><g><path class="cls-2" d="M98.91609,39.3318c0-11.33582-9.17987-20.63074-20.4879-20.63074h-6.74583c-1.15374,0-2.08905,.93639-2.08905,2.09157s.93532,2.09148,2.08905,2.09148h6.6269c9.05888,0,16.42872,7.37848,16.42872,16.4477s-7.36984,16.4477-16.42872,16.4477h-22.86011v-3.82324h-4.1781v8.0062h27.09736v-.00153c11.33536-.03222,20.54768-9.27332,20.54768-20.62912Z"/><path class="cls-2" d="M19.7695,39.3318c0,11.33591,9.18005,20.56594,20.4879,20.63065h6.74582c1.15383,0,2.08905-.9363,2.08905-2.09148s-.93522-2.09148-2.08905-2.09148h-6.6269c-9.05879,0-16.42872-7.37839-16.42872-16.4477s7.36994-16.4477,16.42872-16.4477h22.86002v3.82324h4.17819v-8.00629h-27.09736v.00153c-11.33545,.03231-20.54768,9.27341-20.54768,20.62921Z"/><g><polygon class="cls-1" points="41.09842 41.17139 37.19664 30.81462 32.47182 30.81462 39.26295 47.82388 42.53307 47.82388 49.54047 30.81462 45.06718 30.81462 41.09842 41.17139"/><polygon class="cls-1" points="63.23923 41.63747 56.62572 30.81462 51.27671 30.81462 51.27671 47.82388 55.44438 47.82388 55.44438 36.72106 62.24378 47.82388 67.4069 47.82388 67.4069 30.81462 63.23923 30.81462 63.23923 41.63747"/><path class="cls-1" d="M79.43431,37.48418v3.90419h2.95805v2.24203c-.30997,.15322-.70646,.30527-1.18262,.45317-.54522,.16956-1.20769,.25591-1.96868,.25591-.73656,0-1.4103-.12624-2.00193-.3753-.59099-.24806-1.10421-.59917-1.52639-1.04386-.42289-.44496-.75224-.97889-.97811-1.58618-.22831-.6109-.3444-1.29679-.3444-2.03791,0-.72541,.11609-1.40761,.3444-2.02726,.22586-.61361,.55522-1.15088,.97811-1.59656,.42165-.44406,.9354-.79517,1.52639-1.04386,.5928-.24905,1.266-.3753,2.00193-.3753,.89024,0,1.63806,.12624,2.22212,.37466,.58532,.24932,1.11927,.62119,1.58849,1.10477l.20136,.20791,2.94056-3.21207-.19892-.18499c-.86581-.80239-1.88647-1.37647-3.03331-1.70593-1.1299-.32404-2.38148-.48827-3.7203-.48827-1.31566,0-2.54588,.20944-3.6582,.623-1.11674,.41554-2.09603,1.01977-2.911,1.79508-.81552,.77667-1.4605,1.7302-1.91594,2.83371-.45418,1.10134-.68446,2.34472-.68446,3.69511,0,1.35067,.23029,2.59404,.68446,3.69574,.45607,1.10387,1.10043,2.05731,1.91594,2.83335,.81498,.77568,1.79426,1.3799,2.911,1.79508,1.11232,.41356,2.34254,.623,3.6582,.623,1.22454,0,2.44295-.12741,3.62053-.379,1.182-.25185,2.3338-.66829,3.42296-1.23706l.14683-.07661v-9.06655h-6.99706Z"/></g></g><g><path class="cls-1" d="M56.84866,72.29217l-1.49899-2.52398c.02848-.01264,.06153-.01713,.08939-.03084,.35575-.17544,.63718-.42154,.84308-.73891s.30884-.67921,.30884-1.08613c0-.4124-.09868-.77424-.29544-1.08552-.19615-.31067-.46966-.55555-.81993-.73465-.35027-.17848-.75292-.26803-1.20736-.26803h-2.39583v6.46806h1.26218v-2.29166h.96765l1.31792,2.29166h1.42848Zm-3.71405-5.3131h1.07821c.31372,0,.57017,.0865,.76998,.25889,.1992,.17239,.2991,.39717,.2991,.67434,0,.17909-.04447,.3393-.13341,.48063-.08894,.14193-.20894,.2528-.3594,.3326-.15046,.08041-.32103,.12-.51169,.12h-1.14278v-1.86647Z"/><path class="cls-1" d="M59.72388,72.40307c-.45443,0-.85709-.10295-1.20675-.30945-.35027-.20651-.62561-.49098-.8248-.85465-.1998-.36367-.29971-.78216-.29971-1.2567s.10295-.89303,.30884-1.2567c.20529-.36306,.48794-.64815,.84734-.85465,.36001-.20651,.77302-.30945,1.23964-.30945,.4057,0,.77912,.10599,1.11964,.31859,.34113,.2126,.61464,.52388,.82054,.93323,.2059,.40996,.30884,.90704,.30884,1.49244h-3.49292l.11026-.11087c0,.22783,.05726,.42641,.17056,.59576,.11391,.16935,.26133,.2991,.44286,.38804,.18092,.08955,.37585,.13402,.58479,.13402,.25219,0,.45748-.05361,.61769-.16143,.1596-.10782,.28265-.24793,.36854-.42032l1.08735,.42458c-.12914,.25889-.29666,.48245-.50195,.67008-.2059,.18823-.45017,.33138-.73282,.42946-.28265,.09868-.60551,.14803-.96796,.14803Zm-1.00451-2.89229l-.11026-.11087h2.221l-.10173,.11087c0-.22173-.05178-.39839-.15655-.53119-.10417-.13219-.23209-.22904-.38255-.29118-.15046-.06092-.29605-.09198-.43738-.09198s-.29179,.03107-.452,.09198c-.1596,.06213-.29605,.15899-.40996,.29118-.1133,.1328-.17056,.30945-.17056,.53119Z"/><path class="cls-1" d="M66.47461,68.58238c-.15046-.32346-.38133-.57444-.6914-.75292s-.69871-.26803-1.16593-.26803c-.38682,0-.71394,.06031-.98136,.18031-.26681,.12-.48367,.27412-.64936,.46174-.1663,.18823-.29179,.38073-.37829,.57748l1.06908,.36976c.11087-.17848,.2461-.31128,.4057-.39717,.1596-.0865,.33808-.12975,.53423-.12975,.21503,0,.3856,.05422,.51169,.16204s.21808,.26011,.27656,.45748c.02124,.0715,.01835,.1762,.0319,.25828h-1.05956c-.59576,0-1.05811,.12488-1.38706,.37463-.32834,.24915-.49281,.62013-.49281,1.11294,0,.45017,.15168,.798,.45626,1.0441,.30397,.24671,.73221,.36976,1.28533,.36976,.55921,0,.95699-.17544,1.19334-.52692,.03274-.04858,.04546-.12069,.07371-.1746l.02315,.59066h1.13365l.02741-2.55969c.00609-.44347-.06579-.82663-.21625-1.15009Zm-1.11964,2.29166c-.09259,.15107-.21686,.27412-.37342,.36915-.15655,.09564-.33626,.14376-.53911,.14376-.22113,0-.39352-.03899-.51596-.11574-.12305-.07675-.18458-.18336-.18458-.31859,0-.17239,.07675-.30641,.23026-.40205s.43007-.14315,.82968-.14315h.6914c0,.16021-.0463,.31555-.13828,.46662Z"/><path class="cls-1" d="M67.6582,72.2922v-6.46806h1.21649v6.46806h-1.21649Z"/><path class="cls-1" d="M70.60714,66.92367c-.18458,0-.34722-.06884-.48855-.20772-.14133-.13828-.21199-.30336-.21199-.49403,0-.19128,.07066-.35575,.21199-.49464,.14133-.13828,.30397-.20772,.48855-.20772,.19006,0,.35453,.06944,.49281,.20772,.13828,.13889,.20772,.30336,.20772,.49464,0,.19067-.06944,.35575-.20772,.49403-.13828,.13889-.30275,.20772-.49281,.20772Zm-.60855,5.36853v-4.61987h1.21649v4.61987h-1.21649Z"/><path class="cls-1" d="M74.06291,72.40307c-.29483,0-.57139-.04447-.82907-.13402-.25828-.08894-.4855-.21869-.68226-.38804s-.35027-.37707-.46053-.62378l1.04105-.48063c.09259,.14803,.21808,.27595,.37829,.38377,.1596,.10782,.34357,.16143,.55251,.16143,.20285,0,.3594-.02924,.47027-.08772,.11026-.05848,.16569-.14315,.16569-.25402s-.04447-.19249-.13341-.24488-.21077-.09686-.36428-.13402l-.42398-.11087c-.44225-.11696-.79069-.30336-1.04593-.5586-.25463-.25585-.38255-.55007-.38255-.88267,0-.47454,.15229-.84064,.45626-1.09953,.30458-.25889,.73587-.38804,1.29507-.38804,.28874,0,.55738,.04325,.80653,.12914,.24854,.0865,.46174,.20651,.64023,.36062,.17787,.15412,.30093,.3326,.36854,.53606l-1.00451,.46174c-.04264-.12305-.14742-.22295-.31311-.30032-.16569-.07675-.33199-.11574-.49768-.11574s-.29362,.03594-.38255,.1066-.13341,.16813-.13341,.29118c0,.0798,.04264,.1462,.12853,.19859,.0865,.05239,.20894,.09686,.36915,.13402l.5988,.14742c.30093,.07432,.54215,.1931,.72368,.35575,.18092,.16325,.31311,.34539,.39595,.5452,.08285,.20041,.12427,.39595,.12427,.58662,0,.27778-.08102,.52205-.24427,.73465-.16265,.2126-.38377,.37768-.66338,.49464s-.59759,.17544-.95394,.17544Z"/><path class="cls-1" d="M80.36225,68.58238c-.15046-.32346-.38133-.57444-.6914-.75292s-.69871-.26803-1.16593-.26803c-.38682,0-.71394,.06031-.98136,.18031-.26681,.12-.48367,.27412-.64936,.46174-.1663,.18823-.29179,.38073-.37829,.57748l1.06908,.36976c.11087-.17848,.2461-.31128,.4057-.39717,.1596-.0865,.33808-.12975,.53423-.12975,.21503,0,.3856,.05422,.51169,.16204s.21808,.26011,.27656,.45748c.02124,.0715,.01835,.1762,.0319,.25828h-1.05956c-.59576,0-1.05811,.12488-1.38706,.37463-.32834,.24915-.49281,.62013-.49281,1.11294,0,.45017,.15168,.798,.45626,1.0441,.30397,.24671,.73221,.36976,1.28533,.36976,.55921,0,.95699-.17544,1.19334-.52692,.03274-.04858,.04546-.12069,.07371-.1746l.02315,.59066h1.13365l.02741-2.55969c.00609-.44347-.06579-.82663-.21625-1.15009Zm-1.11964,2.29166c-.09259,.15107-.21686,.27412-.37342,.36915-.15655,.09564-.33626,.14376-.53911,.14376-.22113,0-.39352-.03899-.51596-.11574-.12305-.07675-.18458-.18336-.18458-.31859,0-.17239,.07675-.30641,.23026-.40205s.43007-.14315,.82968-.14315h.6914c0,.16021-.0463,.31555-.13828,.46662Z"/><path class="cls-1" d="M84.05254,71.10918c-.0798,.05604-.15655,.09747-.23026,.12488-.07371,.02802-.14133,.04203-.20285,.04203-.16569,0-.29179-.05117-.37768-.1529s-.12914-.25097-.12914-.44773v-1.9682h1.15192v-1.03496h-1.15192v-1.44127h-1.21649v1.44127h-.74622v1.03496h.74622v2.23562c0,.46844,.13036,.82907,.39169,1.08126,.26133,.2528,.64693,.3789,1.1568,.3789,.17787,0,.35758-.03533,.53911-.10599,.18092-.07127,.34539-.16204,.49281-.2729l-.42398-.91496Z"/><path class="cls-1" d="M85.933,66.92367c-.18458,0-.34722-.06884-.48855-.20772-.14133-.13828-.21199-.30336-.21199-.49403,0-.19128,.07066-.35575,.21199-.49464,.14133-.13828,.30397-.20772,.48855-.20772,.19006,0,.35453,.06944,.49281,.20772,.13828,.13889,.20772,.30336,.20772,.49464,0,.19067-.06944,.35575-.20772,.49403-.13828,.13889-.30275,.20772-.49281,.20772Zm-.60855,5.36853v-4.61987h1.21649v4.61987h-1.21649Z"/><path class="cls-1" d="M89.74818,72.40307c-.45443,0-.85709-.10295-1.20675-.30945-.35027-.20651-.62561-.49098-.8248-.85465-.1998-.36367-.29971-.78216-.29971-1.2567s.10295-.89303,.30884-1.2567c.20529-.36306,.48794-.64815,.84734-.85465,.36001-.20651,.77302-.30945,1.23964-.30945,.4057,0,.77912,.10599,1.11964,.31859,.34113,.2126,.61464,.52388,.82054,.93323,.2059,.40996,.30884,.90704,.30884,1.49244h-3.49292l.11026-.11087c0,.22783,.05726,.42641,.17056,.59576,.11391,.16935,.26133,.2991,.44286,.38804,.18092,.08955,.37585,.13402,.58479,.13402,.25219,0,.45748-.05361,.61769-.16143,.1596-.10782,.28265-.24793,.36854-.42032l1.08735,.42458c-.12914,.25889-.29666,.48245-.50195,.67008-.2059,.18823-.45017,.33138-.73282,.42946-.28265,.09868-.60551,.14803-.96796,.14803Zm-1.00451-2.89229l-.11026-.11087h2.221l-.10173,.11087c0-.22173-.05178-.39839-.15655-.53119-.10417-.13219-.23209-.22904-.38255-.29118-.15046-.06092-.29605-.09198-.43738-.09198s-.29179,.03107-.452,.09198c-.1596,.06213-.29605,.15899-.40996,.29118-.1133,.1328-.17056,.30945-.17056,.53119Z"/></g></svg>