<?xml version="1.0" encoding="UTF-8"?><svg id="Laag_1" xmlns="http://www.w3.org/2000/svg" viewBox="0 0 119.05512 79.37008"><g><path d="M98.91671,39.3318c0-11.33589-9.17993-20.63087-20.48803-20.63087h-6.74587c-1.15374,0-2.08907,.9364-2.08907,2.09158s.93532,2.09149,2.08907,2.09149h6.62694c9.05894,0,16.42883,7.37853,16.42883,16.4478s-7.36989,16.4478-16.42883,16.4478h-22.86026v-3.82327h-4.17813v8.00625h27.09753v-.00153c11.33543-.03222,20.54781-9.27338,20.54781-20.62925Z"/><path d="M19.76963,39.3318c0,11.33598,9.18011,20.56607,20.48803,20.63078h6.74587c1.15384,0,2.08907-.93631,2.08907-2.09149s-.93523-2.09149-2.08907-2.09149h-6.62694c-9.05884,0-16.42883-7.37844-16.42883-16.4478s7.36998-16.4478,16.42883-16.4478h22.86017v3.82327h4.17822v-8.00634h-27.09753v.00153c-11.33552,.03231-20.54781,9.27347-20.54781,20.62934Z"/><g><polygon points="41.09868 41.1714 37.19687 30.81456 32.47203 30.81456 39.2632 47.82393 42.53334 47.82393 49.54079 30.81456 45.06746 30.81456 41.09868 41.1714"/><polygon points="63.23963 41.63748 56.62608 30.81456 51.27703 30.81456 51.27703 47.82393 55.44474 47.82393 55.44474 36.72104 62.24418 47.82393 67.40733 47.82393 67.40733 30.81456 63.23963 30.81456 63.23963 41.63748"/><path d="M79.43482,37.48416v3.90421h2.95807v2.24204c-.30997,.15322-.70646,.30527-1.18263,.45317-.54522,.16956-1.2077,.25591-1.96869,.25591-.73657,0-1.41031-.12624-2.00194-.3753-.59099-.24806-1.10422-.59918-1.5264-1.04387-.4229-.44496-.75225-.9789-.97812-1.58619-.22831-.61091-.3444-1.2968-.3444-2.03792,0-.72542,.11609-1.40761,.3444-2.02728,.22587-.61361,.55522-1.15089,.97812-1.59657,.42165-.44406,.93541-.79517,1.5264-1.04387,.5928-.24906,1.26601-.3753,2.00194-.3753,.89024,0,1.63808,.12624,2.22214,.37467,.58532,.24933,1.11928,.62119,1.5885,1.10478l.20136,.20791,2.94058-3.21209-.19892-.18499c-.86582-.80239-1.88648-1.37648-3.03333-1.70594-1.12991-.32404-2.38149-.48827-3.72033-.48827-1.31567,0-2.54589,.20944-3.65822,.623-1.11675,.41554-2.09604,1.01977-2.91102,1.79509-.81552,.77667-1.46051,1.73021-1.91595,2.83373-.45418,1.10135-.68447,2.34473-.68447,3.69513,0,1.35067,.23029,2.59406,.68447,3.69577,.45607,1.10388,1.10043,2.05732,1.91595,2.83337,.81498,.77568,1.79428,1.37991,2.91102,1.79509,1.11233,.41356,2.34255,.623,3.65822,.623,1.22455,0,2.44296-.12742,3.62055-.379,1.182-.25185,2.33382-.6683,3.42298-1.23707l.14683-.07661v-9.06661h-6.99711Z"/></g></g><g><path d="M56.84902,72.29238l-1.499-2.524c.02848-.01264,.06153-.01713,.08939-.03084,.35575-.17544,.63719-.42154,.84308-.73892s.30885-.67922,.30885-1.08614c0-.4124-.09868-.77425-.29544-1.08553-.19615-.31067-.46967-.55556-.81993-.73465-.35027-.17849-.75293-.26803-1.20736-.26803h-2.39584v6.4681h1.26219v-2.29168h.96766l1.31793,2.29168h1.42849Zm-3.71407-5.31313h1.07822c.31372,0,.57018,.0865,.76998,.25889,.1992,.17239,.2991,.39718,.2991,.67434,0,.17909-.04447,.3393-.13341,.48063-.08894,.14194-.20894,.2528-.35941,.3326-.15046,.08041-.32103,.12001-.5117,.12001h-1.14279v-1.86648Z"/><path d="M59.72426,72.40328c-.45444,0-.85709-.10295-1.20675-.30946-.35027-.20651-.62561-.49099-.82481-.85466-.19981-.36367-.29971-.78217-.29971-1.25671s.10295-.89303,.30885-1.25671c.20529-.36306,.48794-.64815,.84735-.85466,.36002-.20651,.77303-.30946,1.23965-.30946,.4057,0,.77912,.10599,1.11964,.31859,.34113,.2126,.61465,.52388,.82054,.93324,.2059,.40997,.30885,.90705,.30885,1.49245h-3.49295l.11026-.11087c0,.22783,.05726,.42641,.17057,.59576,.11391,.16935,.26133,.2991,.44286,.38804,.18092,.08955,.37585,.13402,.5848,.13402,.25219,0,.45748-.05361,.61769-.16143,.1596-.10782,.28265-.24793,.36854-.42032l1.08736,.42459c-.12914,.25889-.29666,.48246-.50195,.67008-.2059,.18823-.45017,.33139-.73282,.42946-.28265,.09868-.60551,.14803-.96796,.14803Zm-1.00451-2.89231l-.11026-.11087h2.22101l-.10173,.11087c0-.22174-.05178-.39839-.15656-.53119-.10417-.13219-.23209-.22905-.38256-.29118-.15046-.06092-.29605-.09198-.43738-.09198s-.29179,.03107-.452,.09198c-.1596,.06213-.29605,.15899-.40997,.29118-.1133,.1328-.17057,.30946-.17057,.53119Z"/><path d="M66.47504,68.58257c-.15046-.32347-.38134-.57444-.6914-.75293s-.69871-.26803-1.16594-.26803c-.38682,0-.71394,.06031-.98136,.18031-.26681,.12001-.48368,.27412-.64937,.46175-.1663,.18823-.29179,.38073-.37829,.57749l1.06908,.36976c.11087-.17849,.2461-.31128,.4057-.39718,.1596-.0865,.33809-.12975,.53424-.12975,.21503,0,.3856,.05422,.5117,.16204s.21808,.26011,.27656,.45748c.02124,.0715,.01835,.1762,.0319,.25829h-1.05956c-.59576,0-1.05812,.12488-1.38707,.37464-.32834,.24915-.49281,.62013-.49281,1.11294,0,.45017,.15168,.79801,.45626,1.04411,.30397,.24671,.73222,.36976,1.28534,.36976,.55921,0,.957-.17544,1.19335-.52693,.03274-.04858,.04546-.12069,.07371-.1746l.02315,.59066h1.13365l.02741-2.55971c.00609-.44347-.06579-.82664-.21625-1.1501Zm-1.11964,2.29168c-.09259,.15107-.21686,.27412-.37342,.36915-.15656,.09564-.33626,.14376-.53911,.14376-.22113,0-.39352-.03899-.51596-.11574-.12305-.07675-.18458-.18336-.18458-.31859,0-.17239,.07675-.30641,.23026-.40205s.43007-.14315,.82968-.14315h.6914c0,.16021-.0463,.31555-.13828,.46662Z"/><path d="M67.65863,72.29241v-6.4681h1.2165v6.4681h-1.2165Z"/><path d="M70.60759,66.92385c-.18458,0-.34722-.06884-.48855-.20772-.14133-.13828-.21199-.30336-.21199-.49403,0-.19128,.07066-.35575,.21199-.49464,.14133-.13828,.30397-.20772,.48855-.20772,.19006,0,.35453,.06944,.49281,.20772,.13828,.13889,.20772,.30336,.20772,.49464,0,.19067-.06944,.35575-.20772,.49403-.13828,.13889-.30275,.20772-.49281,.20772Zm-.60855,5.36856v-4.6199h1.2165v4.6199h-1.2165Z"/><path d="M74.06338,72.40328c-.29484,0-.5714-.04447-.82907-.13402-.25829-.08894-.4855-.21869-.68226-.38804s-.35027-.37707-.46053-.62378l1.04106-.48063c.09259,.14803,.21808,.27595,.37829,.38377,.1596,.10782,.34357,.16143,.55251,.16143,.20285,0,.35941-.02924,.47027-.08772,.11026-.05848,.16569-.14315,.16569-.25402s-.04447-.1925-.13341-.24488-.21077-.09686-.36428-.13402l-.42398-.11087c-.44225-.11696-.7907-.30336-1.04593-.5586-.25463-.25585-.38256-.55008-.38256-.88268,0-.47454,.15229-.84065,.45626-1.09954,.30458-.25889,.73587-.38804,1.29508-.38804,.28874,0,.55739,.04325,.80653,.12914,.24854,.0865,.46175,.20651,.64023,.36063,.17788,.15412,.30093,.3326,.36854,.53606l-1.00451,.46175c-.04264-.12305-.14742-.22295-.31311-.30032-.16569-.07675-.33199-.11574-.49769-.11574s-.29362,.03594-.38256,.1066-.13341,.16813-.13341,.29118c0,.0798,.04264,.1462,.12853,.19859,.0865,.05239,.20894,.09686,.36915,.13402l.59881,.14742c.30093,.07432,.54216,.19311,.72369,.35575,.18092,.16326,.31311,.3454,.39596,.5452,.08285,.20041,.12427,.39596,.12427,.58663,0,.27778-.08102,.52205-.24427,.73465-.16265,.2126-.38377,.37768-.66338,.49464s-.59759,.17544-.95395,.17544Z"/><path d="M80.36276,68.58257c-.15046-.32347-.38134-.57444-.6914-.75293s-.69871-.26803-1.16594-.26803c-.38682,0-.71394,.06031-.98136,.18031-.26681,.12001-.48368,.27412-.64937,.46175-.1663,.18823-.29179,.38073-.37829,.57749l1.06908,.36976c.11087-.17849,.2461-.31128,.4057-.39718,.1596-.0865,.33809-.12975,.53424-.12975,.21503,0,.3856,.05422,.5117,.16204s.21808,.26011,.27656,.45748c.02124,.0715,.01835,.1762,.0319,.25829h-1.05956c-.59576,0-1.05812,.12488-1.38707,.37464-.32834,.24915-.49281,.62013-.49281,1.11294,0,.45017,.15168,.79801,.45626,1.04411,.30397,.24671,.73222,.36976,1.28534,.36976,.55921,0,.957-.17544,1.19335-.52693,.03274-.04858,.04546-.12069,.07371-.1746l.02315,.59066h1.13365l.02741-2.55971c.00609-.44347-.06579-.82664-.21625-1.1501Zm-1.11964,2.29168c-.09259,.15107-.21686,.27412-.37342,.36915-.15656,.09564-.33626,.14376-.53911,.14376-.22113,0-.39352-.03899-.51596-.11574-.12305-.07675-.18458-.18336-.18458-.31859,0-.17239,.07675-.30641,.23026-.40205s.43007-.14315,.82968-.14315h.6914c0,.16021-.0463,.31555-.13828,.46662Z"/><path d="M84.05308,71.10938c-.0798,.05604-.15656,.09747-.23026,.12488-.07371,.02802-.14133,.04203-.20285,.04203-.16569,0-.29179-.05117-.37768-.1529s-.12914-.25098-.12914-.44774v-1.96821h1.15193v-1.03497h-1.15193v-1.44128h-1.2165v1.44128h-.74623v1.03497h.74623v2.23563c0,.46845,.13036,.82907,.39169,1.08127,.26133,.2528,.64693,.3789,1.1568,.3789,.17788,0,.35758-.03533,.53911-.10599,.18092-.07127,.3454-.16204,.49281-.27291l-.42398-.91496Z"/><path d="M85.93355,66.92385c-.18458,0-.34722-.06884-.48855-.20772-.14133-.13828-.21199-.30336-.21199-.49403,0-.19128,.07066-.35575,.21199-.49464,.14133-.13828,.30397-.20772,.48855-.20772,.19006,0,.35453,.06944,.49281,.20772,.13828,.13889,.20772,.30336,.20772,.49464,0,.19067-.06944,.35575-.20772,.49403-.13828,.13889-.30275,.20772-.49281,.20772Zm-.60855,5.36856v-4.6199h1.2165v4.6199h-1.2165Z"/><path d="M89.74875,72.40328c-.45444,0-.85709-.10295-1.20675-.30946-.35027-.20651-.62561-.49099-.82481-.85466-.19981-.36367-.29971-.78217-.29971-1.25671s.10295-.89303,.30885-1.25671c.20529-.36306,.48794-.64815,.84735-.85466,.36002-.20651,.77303-.30946,1.23965-.30946,.4057,0,.77912,.10599,1.11964,.31859,.34113,.2126,.61465,.52388,.82054,.93324,.2059,.40997,.30885,.90705,.30885,1.49245h-3.49295l.11026-.11087c0,.22783,.05726,.42641,.17057,.59576,.11391,.16935,.26133,.2991,.44286,.38804,.18092,.08955,.37585,.13402,.5848,.13402,.25219,0,.45748-.05361,.61769-.16143,.1596-.10782,.28265-.24793,.36854-.42032l1.08736,.42459c-.12914,.25889-.29666,.48246-.50195,.67008-.2059,.18823-.45017,.33139-.73282,.42946-.28265,.09868-.60551,.14803-.96796,.14803Zm-1.00451-2.89231l-.11026-.11087h2.22101l-.10173,.11087c0-.22174-.05178-.39839-.15656-.53119-.10417-.13219-.23209-.22905-.38256-.29118-.15046-.06092-.29605-.09198-.43738-.09198s-.29179,.03107-.452,.09198c-.1596,.06213-.29605,.15899-.40997,.29118-.1133,.1328-.17057,.30946-.17057,.53119Z"/></g></svg>